<svg width="439" height="391" viewBox="0 0 439 391" fill="none" xmlns="http://www.w3.org/2000/svg">
<g clip-path="url(#clip0_289_7)">
<path d="M276.449 0.458154C252.011 3.51284 230.018 12.8296 212.301 27.4921C209.551 29.7832 184.961 52.6933 157.545 78.5054C111.801 121.5 107.525 125.7 105.386 130.053C100.881 139.217 100.881 141.432 105.768 171.521C108.136 186.183 110.35 199.7 110.732 201.533L111.343 204.969L98.8952 218.563L86.4474 232.233L86.5237 241.549C86.6765 249.339 86.4474 251.324 85.2255 253.768C83.2399 257.816 80.2616 259.19 74.9159 258.579C72.5485 258.35 69.6466 258.045 68.3484 257.968L66.0573 257.739L65.6755 264.994C65.2173 273.394 63.6136 277.442 59.7189 280.038C56.0532 282.406 52.0821 282.864 46.5073 281.489C43.0708 280.573 41.6198 280.497 41.238 281.108C40.9325 281.566 40.4743 284.239 40.2452 287.064C39.0997 300.352 30.3175 307.76 16.6478 306.843C13.364 306.538 11.2257 306.767 10.7675 307.302C9.31651 309.058 2.29073 331.357 1.14522 337.848C-0.45849 347.089 -0.382123 348.387 2.67256 366.562C5.34542 383.21 6.26182 385.96 9.62198 388.633C15.9605 393.673 30.1648 389.702 47.8056 377.941L54.6786 373.283L55.595 367.326C56.8933 358.391 59.948 353.351 65.2937 351.289C66.5919 350.754 70.2575 350.525 73.6941 350.678L79.8034 350.907L80.7198 344.034C82.0181 334.794 84.6909 329.524 89.273 327.081C93.5495 324.866 99.2007 324.79 105.463 326.852C108.059 327.768 110.35 328.302 110.579 328.073C110.732 327.844 111.038 324.484 111.038 320.589C111.267 310.127 114.169 305.392 121.805 303.254C125.929 302.109 128.678 302.185 135.857 303.636L141.89 304.858L167.702 282.177C189.925 262.779 193.896 259.648 195.5 259.954C216.959 264.46 234.6 263.161 252.241 255.83C265.91 250.179 269.958 246.742 325.324 193.667C353.656 166.48 378.476 142.501 380.461 140.439C387.029 133.261 390.923 123.18 391 113.253C391 108.67 381.607 50.4023 379.85 44.2929C378.246 38.8708 376.261 34.8998 372.672 30.165C367.708 23.6738 363.278 21.0009 346.172 14.0515C328.684 6.873 319.138 3.74194 309.287 1.90913C303.025 0.687256 281.871 -0.22915 276.449 0.458154ZM307.149 4.96382C317.076 6.6439 326.011 9.46948 342.507 16.1134C360.606 23.4447 362.744 24.5138 367.86 29.9359C374.734 37.2671 378.323 46.5076 378.323 57.2753C378.323 69.0359 373.893 78.7345 364.959 86.6767C363.049 88.3568 339.376 110.961 312.418 136.926C285.384 162.891 260.87 185.878 257.815 188.016C250.331 193.362 238.342 199.013 229.33 201.38C222.686 203.213 220.472 203.442 209.246 203.366C189.696 203.366 188.398 202.908 144.716 182.441C120.049 170.91 117.682 169.611 113.71 165.717C107.677 159.76 105.845 154.796 105.768 144.716C105.768 137.614 105.921 136.697 108.212 132.115C110.503 127.457 113.863 124.097 158.538 82.0947C184.885 57.2754 208.711 35.0525 211.46 32.6087C229.559 16.8007 252.775 6.41479 276.067 3.81831C283.78 2.97827 298.901 3.51284 307.149 4.96382ZM383.287 82.8584C387.716 109.358 388.021 112.412 387.181 118.369C386.265 124.631 384.203 129.901 380.767 134.635C377.254 139.523 274.845 237.731 267.743 243C252.622 254.226 231.469 260.641 213.828 259.343C206.115 258.732 197.791 257.281 197.791 256.517C197.791 256.288 199.165 254.761 200.845 253.234C202.526 251.706 203.9 249.873 203.9 249.186C203.9 246.971 199.853 222.381 199.394 221.541C198.784 220.625 126.464 191.682 124.707 191.682C124.02 191.682 121.347 193.973 118.751 196.798L114.092 201.838L111.267 184.35C109.739 174.728 108.441 166.557 108.441 166.175C108.441 165.869 110.274 167.244 112.489 169.23C115.849 172.361 120.889 174.957 141.737 184.732C176.179 200.922 179.081 202.144 187.634 204.435C194.431 206.344 196.416 206.497 209.246 206.497C222.381 206.573 223.908 206.42 230.934 204.435C247.048 200.006 259.114 192.674 273.776 178.623C278.816 173.812 300.81 152.734 322.651 131.81C374.199 82.4765 374.428 82.2474 377.635 75.4507C379.086 72.396 380.308 69.4177 380.385 68.7304C380.461 66.5158 381.072 69.1886 383.287 82.8584ZM161.516 209.552L196.645 223.527L198.249 233.378C199.165 238.8 200.082 244.528 200.311 246.131L200.769 248.957L170.909 274.998L141.126 301.039L135.475 300.123C118.216 297.145 108.67 303.254 107.83 317.917C107.525 322.957 107.296 323.797 106.226 323.415C90.5712 318.527 80.338 325.019 77.7415 341.438L76.8251 347.242L73.6177 346.86C65.2173 345.943 57.1987 350.831 54.2968 358.62C53.3804 360.911 52.464 364.653 52.2349 367.021L51.7003 371.221L46.2782 374.886C26.5755 388.022 12.2948 391.153 9.16378 382.905C8.171 380.461 5.19268 362.668 5.65088 362.21C5.80362 361.98 6.64366 362.21 7.4837 362.668C13.7458 366.028 30.012 360.3 45.5146 349.227C50.2493 345.867 51.1657 344.492 51.1657 340.063C51.1657 336.856 53.1513 330.975 55.2132 328.226C56.0532 327.081 58.3442 325.324 60.1771 324.484C63.079 323.033 64.3773 322.88 69.4939 323.262C76.2142 323.797 76.3669 323.72 76.3669 317.229C76.3669 312.953 78.4288 306.309 80.7198 303.254C83.6218 299.436 88.5857 297.527 94.0077 298.137C96.4515 298.367 99.8116 299.13 101.492 299.818C106.15 301.65 107.067 300.963 106.456 296.076C105.386 287.293 109.052 279.275 115.085 276.755C118.292 275.38 127.609 275.38 132.879 276.755C136.315 277.671 137.308 277.671 138.224 276.831C164.342 254.15 173.048 246.284 173.201 245.062C173.353 244.222 173.048 243.611 172.36 243.611C171.75 243.611 163.349 250.484 153.803 258.885C142.425 268.812 135.933 274.005 135.17 273.7C134.559 273.471 131.275 272.936 127.915 272.478C112.259 270.416 103.095 277.747 103.095 292.41C103.095 296.305 103.019 296.457 101.415 295.923C97.7497 294.854 88.7384 294.625 85.9892 295.541C79.3452 297.679 74.8396 304.323 73.2359 314.327L72.3958 319.749H67.2792C64.53 319.826 61.2462 320.208 59.948 320.742C53.5331 323.262 49.4093 329.372 47.9583 338.536L47.1183 344.263L41.3144 348.082C32.2267 353.962 27.5683 356.329 21.0007 358.544C10.462 362.133 5.42178 360.3 3.81807 352.282C2.3671 345.332 5.26905 331.052 11.6075 314.022L13.0585 310.051H19.0915C26.4991 310.051 32.2267 308.142 36.1978 304.247C39.4816 301.039 42.4599 295.541 43.1472 291.264C44.2163 284.391 43.6817 284.85 49.6384 285.384C56.3587 285.919 60.788 284.391 64.3773 280.191C67.3556 276.755 68.5775 273.165 69.2648 266.216L69.723 261.328L72.3958 262.092C78.5052 263.772 85.0728 261.023 87.9747 255.677C89.5021 252.775 89.7312 251.248 89.8075 242.924L89.8839 233.454L107.219 214.439C116.765 204.053 124.936 195.5 125.471 195.5C126.006 195.5 142.195 201.838 161.516 209.552Z" fill="#F4F4F4"/>
<path d="M233.302 36.5035C229.56 38.8709 213.752 53.6098 212.606 55.9008C210.544 59.9482 211.613 65.7522 215.05 68.8832C217.57 71.0215 310.051 115.314 312.189 115.314C315.091 115.314 317.687 113.482 326.851 105.005C336.474 96.0699 337.543 94.6189 337.543 90.1133C337.543 83.4693 336.397 82.4766 317.076 73.1598C252.699 41.9256 240.175 35.8926 237.731 35.4344C236.356 35.2053 234.753 35.5871 233.302 36.5035ZM282.253 60.0246C306.156 71.5561 327.157 81.7893 328.99 82.6293C332.503 84.3094 334.488 87.2113 334.488 90.6479C334.488 92.4043 332.732 94.4662 324.789 102.103C319.444 107.22 314.327 111.572 313.411 111.802C311.731 112.26 306.385 109.816 243.611 79.4982C229.56 72.7016 217.417 66.4395 216.653 65.523C214.668 63.232 214.286 60.4828 215.432 57.9627C217.112 54.4498 234.447 39.0236 236.814 38.9473C237.884 38.9473 258.274 48.4168 282.253 60.0246Z" fill="#F4F4F4"/>
<path d="M192.063 74.2289C189.161 75.8326 177.859 86.6004 176.713 88.6623C174.652 92.7861 175.721 98.59 179.157 101.721C179.997 102.408 201.686 113.176 227.421 125.548C261.176 141.89 274.922 148.152 276.831 148.152C279.045 148.152 280.496 147.236 285.46 142.883C295.541 134.024 296.915 131.81 296.075 125.853C295.77 123.791 294.93 121.958 293.479 120.584C290.653 117.758 198.631 73.3125 195.729 73.3125C194.507 73.3125 192.903 73.7707 192.063 74.2289ZM243.458 99.0482C274.005 113.863 290.806 122.34 291.799 123.562C292.639 124.631 293.25 126.617 293.25 128.221C293.25 130.664 292.562 131.657 286.224 137.69C282.329 141.356 278.435 144.563 277.518 144.792C276.449 145.098 268.889 141.814 254.99 135.094C243.458 129.595 229.636 122.875 224.137 120.278C192.369 105.005 182.059 99.8883 180.837 98.7428C178.928 97.0627 178.317 93.0152 179.615 90.6479C180.99 87.8986 193.743 76.3672 195.271 76.3672C195.958 76.3672 217.646 86.6004 243.458 99.0482Z" fill="#F4F4F4"/>
<path d="M147.006 114.322C136.086 123.715 134.406 126.388 135.857 131.886C136.315 133.566 137.537 135.781 138.529 136.774C139.98 138.225 177.095 156.476 228.49 181.067C233.836 183.587 235.668 184.121 237.654 183.74C240.785 183.129 258.044 168.39 259.419 165.182C261.328 160.753 260.259 155.636 256.822 152.582C256.058 151.818 244.756 146.167 231.774 139.905C218.715 133.643 197.714 123.486 184.961 117.3C169 109.587 161.058 106.15 159.225 106.15C157.01 106.15 155.177 107.372 147.006 114.322ZM206.42 131.428C231.697 143.57 253.157 154.109 254.073 154.644C254.913 155.255 256.058 156.935 256.593 158.386C257.28 160.6 257.204 161.517 256.211 163.579C254.455 167.091 239.563 179.768 236.89 180.074C234.828 180.303 221.311 173.965 156.476 142.654C147.312 138.148 141.049 134.712 140.286 133.566C139.522 132.573 138.988 130.588 138.988 129.061C138.988 126.77 139.598 125.7 142.653 122.875C149.45 116.307 158.156 109.205 159.301 109.205C159.912 109.205 181.142 119.209 206.42 131.428Z" fill="#F4F4F4"/>
</g>
<g filter="url(#filter0_d_289_7)">
<path d="M428.503 215.121L431.644 214.003L428.724 212.394L365.724 177.686L362.657 175.996L363.55 179.382L381.916 249.034L382.77 252.27L384.617 249.479L397.22 230.447L412.405 249.922L413.329 251.108L414.512 250.181L421.951 244.357L423.13 243.434L422.21 242.254L407.02 222.772L428.503 215.121Z" stroke="#F4F4F4" stroke-width="3"/>
</g>
<defs>
<filter id="filter0_d_289_7" x="357.313" y="170.993" width="80.9736" height="88.8955" filterUnits="userSpaceOnUse" color-interpolation-filters="sRGB">
<feFlood flood-opacity="0" result="BackgroundImageFix"/>
<feColorMatrix in="SourceAlpha" type="matrix" values="0 0 0 0 0 0 0 0 0 0 0 0 0 0 0 0 0 0 127 0" result="hardAlpha"/>
<feOffset dy="1"/>
<feGaussianBlur stdDeviation="1.5"/>
<feColorMatrix type="matrix" values="0 0 0 0 0 0 0 0 0 0 0 0 0 0 0 0 0 0 0.2 0"/>
<feBlend mode="normal" in2="BackgroundImageFix" result="effect1_dropShadow_289_7"/>
<feBlend mode="normal" in="SourceGraphic" in2="effect1_dropShadow_289_7" result="shape"/>
</filter>
<clipPath id="clip0_289_7">
<rect width="391" height="391" fill="white"/>
</clipPath>
</defs>
</svg>
