<svg width="103" height="31" viewBox="0 0 103 31" fill="none" xmlns="http://www.w3.org/2000/svg">
<path d="M92.9819 26.8001C94.7855 26.8001 98.5267 25.5765 98.5267 25.5765C98.766 24.0784 101.399 22.1653 101.399 22.1653V19.0424L100.744 17.4884C100.313 17.1877 100.066 15.6697 99.9221 13.999V13.9617C99.8697 13.3617 99.8325 12.7443 99.8054 12.158V12.1493C99.7297 10.4636 99.7297 9.03626 99.7297 9.03626H99.7098C99.6623 9.03626 99.5301 9.03626 99.307 9.03626H99.292C98.6085 9.02882 97.1169 8.94062 94.741 8.46236C92.1685 7.94558 88.5589 6.96795 83.815 5.13443C72.8066 0.876071 59.8836 1.65619 59.8836 1.65619C47.3263 2.24992 37.7455 7.6487 37.7455 7.6487C34.6664 9.4001 33.1635 10.0001 30.8017 10.2859C14.7679 11.5456 3.27967 17.179 3.27967 17.179C3.27967 17.179 3.5785 20.5952 2.98084 21.5542C2.58653 22.1827 2.68449 22.6834 2.79609 22.953C2.82782 23.0316 2.86949 23.106 2.92008 23.1741L3.33919 24.789L2.41914 25.4188L2.20215 25.5691C3.63801 26.8336 8.81524 26.8001 8.81524 26.8001" stroke="#F4F4F4" stroke-width="1.6"/>
<path d="M12.3086 28L16.2476 19.18H18.2676L22.2192 28H20.073L16.841 20.2132H17.649L14.4043 28H12.3086ZM14.2781 26.11L14.821 24.5602H19.366L19.9215 26.11H14.2781ZM26.8775 28.1512C25.6235 28.1512 24.6429 27.8026 23.9359 27.1054C23.2289 26.4082 22.8754 25.4128 22.8754 24.1192V19.18H24.9207V24.0436C24.9207 24.8836 25.0932 25.4884 25.4383 25.858C25.7834 26.2276 26.2673 26.4124 26.8902 26.4124C27.513 26.4124 27.997 26.2276 28.342 25.858C28.6871 25.4884 28.8597 24.8836 28.8597 24.0436V19.18H30.8797V24.1192C30.8797 25.4128 30.5262 26.4082 29.8192 27.1054C29.1122 27.8026 28.1316 28.1512 26.8775 28.1512ZM34.5834 28V20.8432H31.7554V19.18H39.4567V20.8432H36.6287V28H34.5834ZM44.7263 28.1512C44.0278 28.1512 43.3797 28.0378 42.7821 27.811C42.1929 27.5842 41.6795 27.265 41.2418 26.8534C40.8126 26.4418 40.4759 25.9588 40.2318 25.4044C39.9962 24.85 39.8783 24.2452 39.8783 23.59C39.8783 22.9348 39.9962 22.33 40.2318 21.7756C40.4759 21.2212 40.8168 20.7382 41.2545 20.3266C41.6921 19.915 42.2056 19.5958 42.7947 19.369C43.3839 19.1422 44.0236 19.0288 44.7137 19.0288C45.4123 19.0288 46.052 19.1422 46.6327 19.369C47.2219 19.5958 47.7311 19.915 48.1604 20.3266C48.598 20.7382 48.9389 21.2212 49.183 21.7756C49.4271 22.3216 49.5491 22.9264 49.5491 23.59C49.5491 24.2452 49.4271 24.8542 49.183 25.417C48.9389 25.9714 48.598 26.4544 48.1604 26.866C47.7311 27.2692 47.2219 27.5842 46.6327 27.811C46.052 28.0378 45.4165 28.1512 44.7263 28.1512ZM44.7137 26.4124C45.1093 26.4124 45.4712 26.3452 45.7995 26.2108C46.1361 26.0764 46.4307 25.8832 46.6832 25.6312C46.9357 25.3792 47.1293 25.081 47.264 24.7366C47.4071 24.3922 47.4786 24.01 47.4786 23.59C47.4786 23.17 47.4071 22.7878 47.264 22.4434C47.1293 22.099 46.9357 21.8008 46.6832 21.5488C46.4391 21.2968 46.1488 21.1036 45.8121 20.9692C45.4754 20.8348 45.1093 20.7676 44.7137 20.7676C44.3181 20.7676 43.952 20.8348 43.6153 20.9692C43.2871 21.1036 42.9967 21.2968 42.7442 21.5488C42.4917 21.8008 42.2939 22.099 42.1508 22.4434C42.0162 22.7878 41.9488 23.17 41.9488 23.59C41.9488 24.0016 42.0162 24.3838 42.1508 24.7366C42.2939 25.081 42.4875 25.3792 42.7316 25.6312C42.9841 25.8832 43.2787 26.0764 43.6153 26.2108C43.952 26.3452 44.3181 26.4124 44.7137 26.4124Z" fill="#FF4A3F"/>
<path d="M57.5659 28.1512C56.8589 28.1512 56.1814 28.0588 55.5333 27.874C54.8852 27.6808 54.3634 27.433 53.9678 27.1306L54.6621 25.5934C55.0409 25.8622 55.487 26.0848 56.0004 26.2612C56.5222 26.4292 57.0483 26.5132 57.5785 26.5132C57.9825 26.5132 58.3066 26.4754 58.5506 26.3998C58.8031 26.3158 58.9883 26.2024 59.1062 26.0596C59.224 25.9168 59.2829 25.753 59.2829 25.5682C59.2829 25.333 59.1903 25.1482 59.0051 25.0138C58.82 24.871 58.5759 24.7576 58.2729 24.6736C57.9699 24.5812 57.6332 24.4972 57.2629 24.4216C56.901 24.3376 56.5349 24.2368 56.1645 24.1192C55.8026 24.0016 55.4701 23.8504 55.1672 23.6656C54.8642 23.4808 54.6159 23.2372 54.4223 22.9348C54.2371 22.6324 54.1445 22.246 54.1445 21.7756C54.1445 21.2716 54.2792 20.8138 54.5485 20.4022C54.8263 19.9822 55.2387 19.6504 55.7858 19.4068C56.3413 19.1548 57.0356 19.0288 57.8689 19.0288C58.4244 19.0288 58.9715 19.096 59.5101 19.2304C60.0488 19.3564 60.5244 19.5496 60.9368 19.81L60.3055 21.3598C59.8931 21.1246 59.4807 20.9524 59.0683 20.8432C58.6559 20.7256 58.2519 20.6668 57.8563 20.6668C57.4607 20.6668 57.1366 20.713 56.8841 20.8054C56.6316 20.8978 56.4507 21.0196 56.3413 21.1708C56.2319 21.3136 56.1772 21.4816 56.1772 21.6748C56.1772 21.9016 56.2697 22.0864 56.4549 22.2292C56.6401 22.3636 56.8842 22.4728 57.1872 22.5568C57.4902 22.6408 57.8226 22.7248 58.1845 22.8088C58.5549 22.8928 58.921 22.9894 59.2829 23.0986C59.6532 23.2078 59.9899 23.3548 60.2929 23.5396C60.5959 23.7244 60.84 23.968 61.0251 24.2704C61.219 24.5728 61.3158 24.955 61.3158 25.417C61.3158 25.9126 61.1769 26.3662 60.8989 26.7778C60.6211 27.1894 60.2045 27.5212 59.649 27.7732C59.1019 28.0252 58.4076 28.1512 57.5659 28.1512ZM68.7729 19.18H70.8182V28H68.7729V19.18ZM64.7582 28H62.7129V19.18H64.7582V28ZM68.9244 24.3838H64.6067V22.6576H68.9244V24.3838ZM77.2016 28.1512C76.503 28.1512 75.855 28.0378 75.2574 27.811C74.6682 27.5842 74.1548 27.265 73.7171 26.8534C73.2879 26.4418 72.9512 25.9588 72.7071 25.4044C72.4715 24.85 72.3536 24.2452 72.3536 23.59C72.3536 22.9348 72.4715 22.33 72.7071 21.7756C72.9512 21.2212 73.2921 20.7382 73.7297 20.3266C74.1674 19.915 74.6808 19.5958 75.27 19.369C75.8592 19.1422 76.4988 19.0288 77.189 19.0288C77.8876 19.0288 78.5272 19.1422 79.108 19.369C79.6972 19.5958 80.2064 19.915 80.6356 20.3266C81.0733 20.7382 81.4142 21.2212 81.6582 21.7756C81.9023 22.3216 82.0244 22.9264 82.0244 23.59C82.0244 24.2452 81.9023 24.8542 81.6582 25.417C81.4142 25.9714 81.0733 26.4544 80.6356 26.866C80.2064 27.2692 79.6972 27.5842 79.108 27.811C78.5272 28.0378 77.8918 28.1512 77.2016 28.1512ZM77.189 26.4124C77.5846 26.4124 77.9465 26.3452 78.2747 26.2108C78.6114 26.0764 78.906 25.8832 79.1585 25.6312C79.411 25.3792 79.6046 25.081 79.7392 24.7366C79.8823 24.3922 79.9539 24.01 79.9539 23.59C79.9539 23.17 79.8823 22.7878 79.7392 22.4434C79.6046 22.099 79.411 21.8008 79.1585 21.5488C78.9144 21.2968 78.624 21.1036 78.2874 20.9692C77.9507 20.8348 77.5846 20.7676 77.189 20.7676C76.7934 20.7676 76.4273 20.8348 76.0906 20.9692C75.7624 21.1036 75.472 21.2968 75.2195 21.5488C74.967 21.8008 74.7692 22.099 74.6261 22.4434C74.4915 22.7878 74.4241 23.17 74.4241 23.59C74.4241 24.0016 74.4915 24.3838 74.6261 24.7366C74.7692 25.081 74.9628 25.3792 75.2069 25.6312C75.4594 25.8832 75.754 26.0764 76.0906 26.2108C76.4273 26.3452 76.7934 26.4124 77.189 26.4124ZM83.5616 28V19.18H87.387C88.1782 19.18 88.8599 19.3102 89.4322 19.5706C90.0046 19.8226 90.4464 20.188 90.7579 20.6668C91.0693 21.1456 91.225 21.7168 91.225 22.3804C91.225 23.0356 91.0693 23.6026 90.7579 24.0814C90.4464 24.5602 90.0046 24.9298 89.4322 25.1902C88.8599 25.4422 88.1782 25.5682 87.387 25.5682H84.6979L85.6069 24.6484V28H83.5616ZM85.6069 24.8752L84.6979 23.905H87.2734C87.9046 23.905 88.3759 23.7706 88.6874 23.5018C88.9988 23.233 89.1545 22.8592 89.1545 22.3804C89.1545 21.8932 88.9988 21.5152 88.6874 21.2464C88.3759 20.9776 87.9046 20.8432 87.2734 20.8432H84.6979L85.6069 19.873V24.8752Z" fill="#F4F4F4"/>
</svg>
