<svg width="103" height="37" viewBox="0 0 103 37" fill="none" xmlns="http://www.w3.org/2000/svg">
<g clip-path="url(#clip0_414_917)">
<g filter="url(#filter0_i_414_917)">
<path d="M10.1881 0.355957C1.51206 0.355957 0.414062 4.47796 0.414062 6.99796V7.53796C0.414062 10.04 1.51206 14.252 10.1881 14.252H10.9981C19.6561 14.252 20.7541 10.04 20.7541 7.53796V6.99796C20.7541 4.47796 19.6381 0.355957 10.9981 0.355957H10.1881ZM15.4621 7.37596C15.4621 8.81596 14.5441 10.634 10.5841 10.634C6.62406 10.634 5.70606 8.74396 5.70606 7.33996V7.12396C5.70606 5.70196 6.55206 3.95596 10.5841 3.95596C14.5441 3.95596 15.4621 5.70196 15.4621 7.12396V7.37596ZM22.0282 14H34.7002C39.0742 14 40.3522 12.236 40.3522 10.13V9.91396C40.3522 7.55596 38.4622 6.76396 37.2742 6.47596C38.1562 6.27796 39.5782 5.52196 39.5782 3.84796V3.64996C39.5782 2.11996 38.5342 0.607957 34.6282 0.607957H22.0282V14ZM33.0802 3.64996C34.1422 3.64996 34.4482 4.04596 34.4482 4.56796V4.60396C34.4482 5.10796 34.1422 5.53996 33.0802 5.53996H27.1402V3.64996H33.0802ZM33.4042 8.54596C34.7182 8.54596 34.9882 9.06796 34.9882 9.64396V9.69796C34.9882 10.22 34.7362 10.85 33.4042 10.85H27.1402V8.54596H33.4042ZM46.5464 3.86596H52.4144C53.5664 3.86596 53.9624 4.36996 53.9624 4.99996V5.01796C53.9624 5.66596 53.5484 6.16996 52.4144 6.16996H46.5464V3.86596ZM46.5464 9.40996H51.4424C53.4584 9.40996 54.1604 10.202 54.1604 11.732V13.298C54.1604 13.676 54.1964 13.856 54.3224 14H59.5424V13.91C59.4164 13.676 59.2904 13.334 59.2904 12.398V10.418C59.2904 8.68996 58.1924 7.60996 56.5364 7.23196C57.5444 6.99796 59.2364 6.18796 59.2364 4.24396V4.04596C59.2364 1.86796 57.5084 0.607957 53.6024 0.607957H41.4344V14H46.5464V9.40996ZM71.9458 8.49196H67.4998L69.6958 3.88396L71.9458 8.49196ZM74.6278 14H80.2258L73.2238 0.607957H66.3478L59.7238 14H64.9078L65.9338 11.84H73.5838L74.6278 14ZM80.6106 0.607957V4.13596H89.0346L80.5026 11.264V14H96.6306V10.346H87.7566L96.5406 3.32596V0.607957H80.6106ZM102.788 10.49H97.7124V14H102.788V10.49ZM6.22806 36H11.3401V26.262H17.1181V22.608H0.450062V26.262H6.22806V36ZM27.2916 22.356C18.6156 22.356 17.5176 26.478 17.5176 28.998V29.538C17.5176 32.04 18.6156 36.252 27.2916 36.252H28.1016C36.7596 36.252 37.8576 32.04 37.8576 29.538V28.998C37.8576 26.478 36.7416 22.356 28.1016 22.356H27.2916ZM32.5656 29.376C32.5656 30.816 31.6476 32.634 27.6876 32.634C23.7276 32.634 22.8096 30.744 22.8096 29.34V29.124C22.8096 27.702 23.6556 25.956 27.6876 25.956C31.6476 25.956 32.5656 27.702 32.5656 29.124V29.376ZM50.2917 31.806C55.1877 31.806 56.6457 29.754 56.6457 27.324V27.036C56.6457 24.57 55.2417 22.608 50.2917 22.608H39.1317V36H44.2437V31.806H50.2917ZM44.2437 25.956H49.6797C50.8857 25.956 51.3717 26.406 51.3717 27.18V27.234C51.3717 27.972 50.8497 28.458 49.6797 28.458H44.2437V25.956Z" fill="url(#paint0_linear_414_917)"/>
<path d="M10.1881 0.355957C1.51206 0.355957 0.414062 4.47796 0.414062 6.99796V7.53796C0.414062 10.04 1.51206 14.252 10.1881 14.252H10.9981C19.6561 14.252 20.7541 10.04 20.7541 7.53796V6.99796C20.7541 4.47796 19.6381 0.355957 10.9981 0.355957H10.1881ZM15.4621 7.37596C15.4621 8.81596 14.5441 10.634 10.5841 10.634C6.62406 10.634 5.70606 8.74396 5.70606 7.33996V7.12396C5.70606 5.70196 6.55206 3.95596 10.5841 3.95596C14.5441 3.95596 15.4621 5.70196 15.4621 7.12396V7.37596ZM22.0282 14H34.7002C39.0742 14 40.3522 12.236 40.3522 10.13V9.91396C40.3522 7.55596 38.4622 6.76396 37.2742 6.47596C38.1562 6.27796 39.5782 5.52196 39.5782 3.84796V3.64996C39.5782 2.11996 38.5342 0.607957 34.6282 0.607957H22.0282V14ZM33.0802 3.64996C34.1422 3.64996 34.4482 4.04596 34.4482 4.56796V4.60396C34.4482 5.10796 34.1422 5.53996 33.0802 5.53996H27.1402V3.64996H33.0802ZM33.4042 8.54596C34.7182 8.54596 34.9882 9.06796 34.9882 9.64396V9.69796C34.9882 10.22 34.7362 10.85 33.4042 10.85H27.1402V8.54596H33.4042ZM46.5464 3.86596H52.4144C53.5664 3.86596 53.9624 4.36996 53.9624 4.99996V5.01796C53.9624 5.66596 53.5484 6.16996 52.4144 6.16996H46.5464V3.86596ZM46.5464 9.40996H51.4424C53.4584 9.40996 54.1604 10.202 54.1604 11.732V13.298C54.1604 13.676 54.1964 13.856 54.3224 14H59.5424V13.91C59.4164 13.676 59.2904 13.334 59.2904 12.398V10.418C59.2904 8.68996 58.1924 7.60996 56.5364 7.23196C57.5444 6.99796 59.2364 6.18796 59.2364 4.24396V4.04596C59.2364 1.86796 57.5084 0.607957 53.6024 0.607957H41.4344V14H46.5464V9.40996ZM71.9458 8.49196H67.4998L69.6958 3.88396L71.9458 8.49196ZM74.6278 14H80.2258L73.2238 0.607957H66.3478L59.7238 14H64.9078L65.9338 11.84H73.5838L74.6278 14ZM80.6106 0.607957V4.13596H89.0346L80.5026 11.264V14H96.6306V10.346H87.7566L96.5406 3.32596V0.607957H80.6106ZM102.788 10.49H97.7124V14H102.788V10.49ZM6.22806 36H11.3401V26.262H17.1181V22.608H0.450062V26.262H6.22806V36ZM27.2916 22.356C18.6156 22.356 17.5176 26.478 17.5176 28.998V29.538C17.5176 32.04 18.6156 36.252 27.2916 36.252H28.1016C36.7596 36.252 37.8576 32.04 37.8576 29.538V28.998C37.8576 26.478 36.7416 22.356 28.1016 22.356H27.2916ZM32.5656 29.376C32.5656 30.816 31.6476 32.634 27.6876 32.634C23.7276 32.634 22.8096 30.744 22.8096 29.34V29.124C22.8096 27.702 23.6556 25.956 27.6876 25.956C31.6476 25.956 32.5656 27.702 32.5656 29.124V29.376ZM50.2917 31.806C55.1877 31.806 56.6457 29.754 56.6457 27.324V27.036C56.6457 24.57 55.2417 22.608 50.2917 22.608H39.1317V36H44.2437V31.806H50.2917ZM44.2437 25.956H49.6797C50.8857 25.956 51.3717 26.406 51.3717 27.18V27.234C51.3717 27.972 50.8497 28.458 49.6797 28.458H44.2437V25.956Z" fill="#555555" fill-opacity="0.05"/>
</g>
</g>
<defs>
<filter id="filter0_i_414_917" x="0.414062" y="0.355957" width="102.374" height="35.896" filterUnits="userSpaceOnUse" color-interpolation-filters="sRGB">
<feFlood flood-opacity="0" result="BackgroundImageFix"/>
<feBlend mode="normal" in="SourceGraphic" in2="BackgroundImageFix" result="shape"/>
<feColorMatrix in="SourceAlpha" type="matrix" values="0 0 0 0 0 0 0 0 0 0 0 0 0 0 0 0 0 0 127 0" result="hardAlpha"/>
<feOffset/>
<feGaussianBlur stdDeviation="2"/>
<feComposite in2="hardAlpha" operator="arithmetic" k2="-1" k3="1"/>
<feColorMatrix type="matrix" values="0 0 0 0 0.878431 0 0 0 0 0.878431 0 0 0 0 0.878431 0 0 0 0.3 0"/>
<feBlend mode="normal" in2="shape" result="effect1_innerShadow_414_917"/>
</filter>
<linearGradient id="paint0_linear_414_917" x1="52.0001" y1="-4.00004" x2="23.7943" y2="14.9866" gradientUnits="userSpaceOnUse">
<stop stop-color="#F96C68"/>
<stop offset="1" stop-color="#E530E0"/>
</linearGradient>
<clipPath id="clip0_414_917">
<rect width="103" height="37" fill="white"/>
</clipPath>
</defs>
</svg>
