<svg width="15" height="16" viewBox="0 0 15 16" fill="none" xmlns="http://www.w3.org/2000/svg">
<path d="M6.78223 1.75094C6.40137 1.76559 5.52539 1.85055 5.12695 1.90914C4.40918 2.01168 3.38086 2.2402 3.04395 2.3691C2.97656 2.39547 2.92969 2.51266 2.54883 3.6025L2.12988 4.8066H1.30078H0.46875V5.36324V5.91988H1.08398C1.42383 5.91988 1.69922 5.92574 1.69922 5.93453C1.69922 5.94039 1.51758 6.23336 1.29199 6.58492C0.832031 7.31148 0.773438 7.41695 0.647461 7.77731C0.474609 8.26656 0.46875 8.36031 0.46875 10.6367C0.46875 12.9277 0.46875 12.9072 0.65918 13.2705C1.16895 14.2402 2.49023 14.4394 3.26367 13.663C3.58887 13.3408 3.75 12.9423 3.75 12.4589V12.2187H7.48535H11.2207V12.415C11.2236 13.2939 11.8184 14.0087 12.6533 14.1289C13.3301 14.2285 14.0361 13.8593 14.335 13.2441C14.5371 12.8369 14.5371 12.8369 14.5225 10.4902C14.5137 8.48922 14.5078 8.38375 14.4521 8.14645C14.3232 7.62496 14.2207 7.41109 13.7021 6.59371C13.4941 6.26266 13.3154 5.97555 13.3096 5.95797C13.2979 5.92867 13.4385 5.91988 13.9072 5.91402L14.5166 5.90523L14.5254 5.35738L14.5312 4.8066L13.6934 4.80074L12.8555 4.79195L12.4512 3.63473C12.2256 2.99899 12.0322 2.45992 12.0176 2.43649C11.9912 2.38961 11.8857 2.34859 11.5137 2.2402C10.2363 1.86813 8.43457 1.68062 6.78223 1.75094ZM9.03809 2.89938C9.82617 2.9902 11.0742 3.21578 11.1445 3.28316C11.1621 3.30074 11.7568 4.95309 11.8535 5.25191C11.8682 5.30172 11.7217 5.30465 7.50293 5.30465C5.10059 5.30465 3.13477 5.29586 3.13477 5.28121C3.13477 5.26949 3.29004 4.81539 3.47754 4.2734L3.82324 3.28609L4.14258 3.20992C4.74316 3.0693 5.61035 2.93746 6.35742 2.87301C6.76465 2.84078 8.66602 2.85836 9.03809 2.89938ZM12.7148 7.08297C13.1865 7.83297 13.2744 8.00289 13.3594 8.33395C13.415 8.55074 13.418 8.65621 13.418 9.85152V11.1347H11.7627H10.1074V9.75777V8.38082H7.5H4.89258V9.75777V11.1347H3.22266H1.55273V9.93648C1.55273 8.21383 1.5498 8.22848 2.26758 7.09762L2.70117 6.41793H7.49707H12.293L12.7148 7.08297ZM8.99414 10.3144V11.1347H7.48535H5.97656V10.3144V9.4941H7.48535H8.99414V10.3144ZM2.66602 12.4033C2.66602 12.7841 2.44336 13.039 2.10645 13.039C1.76367 13.039 1.55273 12.79 1.55273 12.3916V12.2187H2.10938H2.66602V12.4033ZM13.418 12.4238C13.418 12.6728 13.3535 12.8193 13.1924 12.9423C13.0986 13.0156 13.0605 13.0244 12.876 13.0244C12.6914 13.0244 12.6533 13.0156 12.5596 12.9423C12.3984 12.8193 12.334 12.6728 12.334 12.4238V12.2187H12.876H13.418V12.4238Z" fill="white"/>
<path d="M2.72467 8.42773C2.5108 8.52148 2.39654 8.69141 2.39068 8.92285C2.38775 9.12207 2.49615 9.30664 2.67193 9.40625C2.78912 9.47363 2.82428 9.47949 3.20807 9.47949C3.59771 9.47949 3.62408 9.47656 3.75006 9.40039C4.1485 9.16895 4.11041 8.60352 3.6856 8.4248C3.53326 8.36328 2.87115 8.36328 2.72467 8.42773Z" fill="white"/>
<path d="M11.2562 8.44238C10.9193 8.60938 10.8607 9.09277 11.1478 9.34473C11.2738 9.45605 11.391 9.47949 11.7777 9.47949C12.1644 9.47949 12.2816 9.45605 12.4076 9.34473C12.6947 9.08984 12.6361 8.60645 12.2992 8.44238C12.1879 8.38965 12.1176 8.38086 11.7748 8.38086C11.432 8.38086 11.3646 8.38965 11.2562 8.44238Z" fill="white"/>
</svg>
