<svg width="14" height="15" viewBox="0 0 14 15" fill="none" xmlns="http://www.w3.org/2000/svg">
<g clip-path="url(#clip0_192_1603)">
<path d="M4.08366 13.3334H2.33366C2.02424 13.3334 1.72749 13.2105 1.5087 12.9917C1.28991 12.7729 1.16699 12.4762 1.16699 12.1667V8.08341C1.16699 7.774 1.28991 7.47725 1.5087 7.25846C1.72749 7.03966 2.02424 6.91675 2.33366 6.91675H4.08366M8.16699 5.75008V3.41675C8.16699 2.95262 7.98262 2.5075 7.65443 2.17931C7.32624 1.85112 6.88112 1.66675 6.41699 1.66675L4.08366 6.91675V13.3334H10.6637C10.945 13.3366 11.218 13.238 11.4324 13.0558C11.6468 12.8735 11.7881 12.6199 11.8303 12.3417L12.6353 7.09175C12.6607 6.92454 12.6494 6.75381 12.6023 6.59139C12.5551 6.42898 12.4732 6.27875 12.3622 6.15113C12.2513 6.02351 12.1139 5.92154 11.9596 5.85229C11.8053 5.78304 11.6378 5.74817 11.4687 5.75008H8.16699Z" stroke="#515151" stroke-width="2" stroke-linecap="round" stroke-linejoin="round"/>
</g>
<defs>
<clipPath id="clip0_192_1603">
<rect width="14" height="14" fill="white" transform="translate(0 0.5)"/>
</clipPath>
</defs>
</svg>
