<svg width="27" height="23" viewBox="0 0 27 23" fill="none" xmlns="http://www.w3.org/2000/svg">
<path d="M26.0321 1.1257C25.718 0.733034 25.2476 0.516846 24.7073 0.516846C24.4136 0.516846 24.1024 0.580018 23.7826 0.704958L2.01598 9.19868C0.860845 9.64931 0.705271 10.3255 0.715276 10.6885C0.725282 11.0515 0.918131 11.7177 2.09642 12.101C2.10348 12.1032 2.11054 12.1054 2.1176 12.1074L6.63259 13.4282L9.07431 20.5656C9.40723 21.5387 10.1545 22.1431 11.0248 22.1431C11.5735 22.1431 12.1132 21.9081 12.5856 21.4637L15.3783 18.8351L19.4289 22.1692C19.4293 22.1696 19.4299 22.1698 19.4303 22.1702L19.4687 22.2019C19.4723 22.2047 19.476 22.2077 19.4795 22.2105C19.9298 22.5675 20.4212 22.756 20.9013 22.7562H20.9015C21.8394 22.7562 22.5863 22.0465 22.8039 20.9483L26.3703 2.94646C26.5135 2.22389 26.3935 1.57733 26.0321 1.1257ZM8.14302 13.1773L16.8538 8.62833L11.4299 14.5198C11.341 14.6162 11.278 14.7343 11.247 14.8629L10.2012 19.1935L8.14302 13.1773ZM11.5649 20.3306C11.5288 20.3645 11.4925 20.3948 11.4562 20.4226L12.4265 16.4053L14.1916 17.8583L11.5649 20.3306ZM24.8936 2.64063L21.3272 20.6426C21.2929 20.8149 21.1832 21.2158 20.9013 21.2158C20.762 21.2158 20.587 21.1382 20.4079 20.9972L15.818 17.2193C15.8174 17.2187 15.8166 17.2181 15.8158 17.2177L13.0847 14.9696L20.9284 6.4498C21.1795 6.17705 21.2022 5.75932 20.9823 5.4597C20.7622 5.16009 20.3633 5.06583 20.0371 5.23629L7.13639 11.9734L2.56 10.635L24.32 2.14387C24.5038 2.07208 24.6321 2.05704 24.7073 2.05704C24.7534 2.05704 24.8354 2.06265 24.8658 2.10096C24.9058 2.15089 24.9568 2.32116 24.8936 2.64063Z" fill="#F4F4F4"/>
</svg>
