<svg width="23" height="23" viewBox="0 0 23 23" fill="none" xmlns="http://www.w3.org/2000/svg">
<g clip-path="url(#clip0_222_347)">
<path fill-rule="evenodd" clip-rule="evenodd" d="M19.5629 3.40345C17.4304 1.2684 14.5943 0.0920725 11.5728 0.0908203C5.34689 0.0908203 0.279867 5.1577 0.277363 11.3853C0.276528 13.3761 0.796587 15.3194 1.78509 17.0324L0.182617 22.8855L6.17052 21.3147C7.82044 22.2147 9.67793 22.689 11.5683 22.6896H11.573C17.7982 22.6896 22.8658 17.6223 22.8682 11.3944C22.8694 8.37614 21.6956 5.53836 19.5629 3.40345ZM11.5728 20.782H11.5689C9.88439 20.7813 8.23225 20.3286 6.79062 19.4734L6.44794 19.2698L2.89463 20.202L3.84306 16.7376L3.61976 16.3824C2.67996 14.8876 2.18369 13.1599 2.18452 11.386C2.18647 6.20979 6.39814 1.99854 11.5766 1.99854C14.0842 1.99937 16.4415 2.97716 18.214 4.75173C19.9864 6.5263 20.962 8.88507 20.9612 11.3937C20.9589 16.5703 16.7475 20.782 11.5728 20.782ZM16.7225 13.7506C16.4404 13.6093 15.0527 12.9267 14.7939 12.8324C14.5354 12.7382 14.347 12.6913 14.1591 12.9737C13.9708 13.2562 13.4301 13.892 13.2653 14.0802C13.1006 14.2686 12.9362 14.2923 12.6539 14.1509C12.3716 14.0097 11.4622 13.7115 10.3841 12.75C9.5452 12.0017 8.97881 11.0774 8.81409 10.795C8.64964 10.5123 8.81269 10.3743 8.93791 10.219C9.24343 9.83962 9.54937 9.44186 9.64342 9.25362C9.73761 9.06524 9.69045 8.90037 9.61977 8.75916C9.54937 8.61794 8.98493 7.22875 8.74981 6.66348C8.52053 6.11337 8.28804 6.18766 8.11469 6.17904C7.95024 6.17083 7.762 6.16916 7.57376 6.16916C7.38566 6.16916 7.07986 6.2397 6.82108 6.52241C6.56245 6.80497 5.83342 7.48767 5.83342 8.87686C5.83342 10.266 6.84474 11.6081 6.98581 11.7964C7.12689 11.9848 8.97603 14.8355 11.8071 16.0579C12.4805 16.349 13.0061 16.5225 13.4161 16.6526C14.0923 16.8674 14.7074 16.837 15.1938 16.7644C15.7361 16.6833 16.8634 16.0816 17.0988 15.4224C17.334 14.7631 17.334 14.1981 17.2633 14.0802C17.1929 13.9625 17.0047 13.892 16.7225 13.7506Z" fill="#F4F4F4"/>
</g>
<defs>
<clipPath id="clip0_222_347">
<rect width="23" height="23" fill="white"/>
</clipPath>
</defs>
</svg>
